<svg width="513" height="480" viewBox="0 0 513 480" fill="none" xmlns="http://www.w3.org/2000/svg">
<path d="M445 455C449.418 455 453 451.418 453 447C453 442.582 449.418 439 445 439C440.582 439 437 442.582 437 447C437 451.418 440.582 455 445 455Z" fill="#9043C1"/>
<path d="M268 386H72C67.5817 386 64 389.582 64 394C64 398.418 67.5817 402 72 402H268C272.418 402 276 398.418 276 394C276 389.582 272.418 386 268 386Z" fill="#9043C1"/>
<path d="M252 394C252 389.582 255.582 386 260 386H378V402H260C255.582 402 252 398.418 252 394Z" fill="#9043C1"/>
<path d="M322 0C330.837 0 338 7.16344 338 16H0C0 7.16344 7.16344 0 16 0H322Z" fill="#9043C1"/>
<path d="M316 13C328.15 13 338 22.8497 338 35V47H0V38C0 24.1929 11.1929 13 25 13H316Z" fill="#9043C1"/>
<path d="M0 16C0 7.16344 7.16344 0 16 0V281C7.16344 281 0 273.837 0 265V16Z" fill="#9043C1"/>
<path d="M54 288C54 279.163 61.1634 272 70 272V402C61.1634 402 54 394.837 54 386V288Z" fill="#9043C1"/>
<path d="M393 480C384.163 480 377 472.837 377 464H511C511 472.837 503.837 480 495 480H393Z" fill="#9043C1"/>
<path d="M416 135C424.837 135 432 142.163 432 151H326C326 142.163 333.163 135 342 135H416Z" fill="#9043C1"/>
<path d="M513 303C513 294.163 505.837 287 497 287V480C505.837 480 513 472.837 513 464V303Z" fill="#9043C1"/>
<path d="M432 150H424H416V301C424.837 301 432 293.837 432 285V150Z" fill="#9043C1"/>
<path d="M416 231H241V328H416V231Z" fill="#F1A168" fill-opacity="0.83"/>
<path d="M416 272H70V328H416V272Z" fill="#F1A168" fill-opacity="0.83"/>
<path d="M416 151H339V244H416V151Z" fill="#F1A168" fill-opacity="0.83"/>
<path d="M339 18C339 9.16344 331.837 2 323 2V283C331.837 283 339 275.837 339 267V18Z" fill="#9043C1"/>
<path d="M322 284C330.837 284 338 276.837 338 268H0C0 276.837 7.16344 284 16 284H322Z" fill="#9043C1"/>
<path d="M322 284C330.837 284 338 276.837 338 268H0C0 276.837 7.16344 284 16 284H322Z" fill="#9043C1"/>
<path d="M393 348H68V364H393V348Z" fill="#9043C1"/>
<path d="M377 303C377 294.163 384.163 287 393 287V480C384.163 480 377 472.837 377 464V303Z" fill="#9043C1"/>
<path d="M323 16V268H16V16H323Z" fill="#EB862E" fill-opacity="0.5"/>
<path d="M193.326 100H57.4023V184H193.326V100Z" fill="#F1A168" fill-opacity="0.83"/>
<path d="M323 47H16V231H323V47Z" fill="#F0A564" fill-opacity="0.7"/>
<path d="M408 328H393V430H408V328Z" fill="#F0A564" fill-opacity="0.7"/>
<path d="M497 300H393V384H497V300Z" fill="#F1A168" fill-opacity="0.83"/>
<path d="M323 138.541H57.4023V231.435H323V138.541Z" fill="#F58C8E"/>
<path d="M308.158 67.3882H230.041V166.212H308.158V67.3882Z" fill="#F36F72" fill-opacity="0.7"/>
<path d="M497 328H408V430H497V328Z" fill="#F36F72" fill-opacity="0.7"/>
<path d="M377 328H70V348H377V328Z" fill="#F58C8E" fill-opacity="0.6"/>
<path d="M378 171H339V244H378V171Z" fill="#F36F72" fill-opacity="0.7"/>
<path d="M495 285C503.837 285 511 292.163 511 301H377C377 292.163 384.163 285 393 285H495Z" fill="#9043C1"/>
<path d="M145.869 480C141.058 480 137.241 475.949 137.526 471.147C137.765 467.133 141.089 464 145.11 464H340.336C343.726 464 346.625 466.435 347.209 469.774C348.144 475.111 344.037 480 338.618 480H145.869Z" fill="#9043C1"/>
<path d="M199 402H216L196 464H179L199 402Z" fill="#9043C1"/>
<path d="M288 464H305L285 402H268L288 464Z" fill="#9043C1"/>
</svg>
