<svg width="277" height="262" viewBox="0 0 277 262" fill="none" xmlns="http://www.w3.org/2000/svg">
<path d="M226 62.25V81C226 98.2656 186.82 112.25 138.5 112.25C90.1797 112.25 51 98.2656 51 81V62.25C51 44.9922 90.1797 31 138.5 31C186.82 31 226 44.9922 226 62.25ZM204.594 114.867C212.367 111.977 220.18 108.266 226 103.695V143.5C226 160.766 186.82 174.75 138.5 174.75C90.1797 174.75 51 160.766 51 143.5V103.695C56.832 108.266 64.2891 111.977 72.4258 114.867C89.9297 121.117 113.305 124.75 138.5 124.75C163.695 124.75 187.055 121.117 204.594 114.867ZM72.4258 177.367C89.9297 183.617 113.305 187.25 138.5 187.25C163.695 187.25 187.055 183.617 204.594 177.367C212.367 174.477 220.18 170.766 226 166.195V199.75C226 217.016 186.82 231 138.5 231C90.1797 231 51 217.016 51 199.75V166.195C56.832 170.766 64.2891 174.477 72.4258 177.367Z" fill="white"/>
</svg>
