<svg width="100" height="100" viewBox="0 0 100 100" fill="none" xmlns="http://www.w3.org/2000/svg">
<path d="M100 45.1613C100 17.6917 77.8333 0 50 0C22.3669 0 0 22.3627 0 50C0 77.6329 22.3627 100 50 100C60.6706 100 71.105 96.5567 79.6565 90.2579C80.7655 89.4409 80.9514 87.8538 80.0788 86.7879L77.0095 83.0385C76.1919 82.0397 74.7415 81.8685 73.6974 82.627C66.8442 87.6042 58.5157 90.3226 50 90.3226C27.7661 90.3226 9.67742 72.2339 9.67742 50C9.67742 27.7661 27.7661 9.67742 50 9.67742C72.0704 9.67742 90.3226 22.7863 90.3226 45.1613C90.3226 57.8843 81.7585 64.9778 73.5847 64.9778C69.6522 64.9778 69.5256 62.4335 70.2851 58.6345L76.0554 28.6835C76.3429 27.1911 75.1996 25.8065 73.6798 25.8065H65.7817C65.2193 25.8067 64.6746 26.0027 64.241 26.3608C63.8075 26.719 63.5122 27.2169 63.4058 27.7692C63.1837 28.923 63.071 29.4498 62.9462 30.5903C60.5423 26.6492 55.7127 24.3266 49.8006 24.3266C35.3653 24.3266 22.5806 36.9252 22.5806 55.1472C22.5806 67.4776 29.2091 75.7339 41.3669 75.7339C47.3756 75.7339 53.7347 72.3401 57.4454 67.2179C58.281 73.4369 63.1907 74.8813 69.4155 74.8813C89.4087 74.8811 100 62.0536 100 45.1613ZM44.7782 64.7883C39.0379 64.7883 35.6109 60.8653 35.6109 54.2944C35.6109 42.6988 43.5867 35.4617 50.6532 35.4617C56.7258 35.4617 59.8208 39.8028 59.8208 45.8609C59.8208 55.3093 53.1319 64.7883 44.7782 64.7883Z" fill="white"/>
</svg>
