<svg width="200" height="200" viewBox="0 0 200 200" fill="none" xmlns="http://www.w3.org/2000/svg">
<path d="M99.667 99.9998C99.667 81.5907 114.591 66.6665 133 66.6665C151.409 66.6665 166.334 81.5907 166.334 99.9998C166.334 118.409 151.409 133.333 133 133.333C114.591 133.333 99.667 118.409 99.667 99.9998Z" fill="#1ABCFE"/>
<path d="M33 166.666C33 148.257 47.9238 133.333 66.3333 133.333H99.6667V166.666C99.6667 185.076 84.743 200 66.3333 200C47.9238 200 33 185.076 33 166.666Z" fill="#0ACF83"/>
<path d="M99.667 0V66.6664H133C151.41 66.6664 166.334 51.7428 166.334 33.3333C166.334 14.9238 151.41 0 133 0H99.667Z" fill="#FF7262"/>
<path d="M33 33.3333C33 51.7428 47.9238 66.6665 66.3333 66.6665H99.6667V0H66.3333C47.9238 0 33 14.9238 33 33.3333Z" fill="#F24E1E"/>
<path d="M33 99.9998C33 118.409 47.9238 133.333 66.3333 133.333H99.6667V66.6665H66.3333C47.9238 66.6665 33 81.5907 33 99.9998Z" fill="#A259FF"/>
</svg>
