<svg width="513" height="480" viewBox="0 0 513 480" fill="none" xmlns="http://www.w3.org/2000/svg">
<circle cx="217" cy="43" r="8" fill="#9043C1"/>
<circle cx="445" cy="442" r="8" fill="#270082"/>
<circle cx="292" cy="43" r="8" fill="#9043C1"/>
<circle cx="255" cy="43" r="8" fill="#9043C1"/>
<rect x="39" y="35" width="93" height="16" rx="8" fill="#9043C1"/>
<rect x="8" y="70" width="152" height="16" rx="8" fill="#9043C1"/>
<rect x="179" y="70" width="152" height="16" rx="8" fill="#9043C1"/>
<rect x="163" y="194" width="137" height="16" rx="8" fill="#9043C1"/>
<rect x="64" y="386" width="171" height="16" rx="8" fill="#270082"/>
<path d="M252 394C252 389.582 255.582 386 260 386H378V402H260C255.582 402 252 398.418 252 394Z" fill="#270082"/>
<rect x="163" y="229" width="35" height="16" rx="8" fill="#9043C1"/>
<rect x="223" y="229" width="77" height="16" rx="8" fill="#9043C1"/>
<path d="M38 122C38 114.82 43.8203 109 51 109H54V245H51C43.8203 245 38 239.18 38 232V122Z" fill="#9043C1"/>
<path d="M141 124C141 116.82 135.18 111 128 111H125V245H128C135.18 245 141 239.18 141 232V124Z" fill="#9043C1"/>
<path d="M300 122C300 114.82 294.18 109 287 109H284V167H287C294.18 167 300 161.18 300 154V122Z" fill="#9043C1"/>
<path d="M163 122C163 114.82 168.82 109 176 109H179V167H176C168.82 167 163 161.18 163 154V122Z" fill="#9043C1"/>
<path d="M128 109C135.18 109 141 114.82 141 122V125L41 125V122C41 114.82 46.8203 109 54 109L128 109Z" fill="#9043C1"/>
<path d="M287 109C294.18 109 300 114.82 300 122V125L163 125V122C163 114.82 168.82 109 176 109L287 109Z" fill="#9043C1"/>
<path d="M322 0C330.837 0 338 7.16344 338 16L0 16C0 7.16344 7.16345 0 16 0L322 0Z" fill="#270082"/>
<path d="M0 16C0 7.16344 7.16344 0 16 0L16 281C7.16344 281 0 273.837 0 265L0 16Z" fill="#270082"/>
<path d="M54 288C54 279.163 61.1634 272 70 272L70 402C61.1634 402 54 394.837 54 386L54 288Z" fill="#270082"/>
<path d="M377 303C377 294.163 384.163 287 393 287V480C384.163 480 377 472.837 377 464V303Z" fill="#270082"/>
<path d="M393 480C384.163 480 377 472.837 377 464H511C511 472.837 503.837 480 495 480H393Z" fill="#270082"/>
<path d="M495 285C503.837 285 511 292.163 511 301H377C377 292.163 384.163 285 393 285H495Z" fill="#270082"/>
<path d="M416 135C424.837 135 432 142.163 432 151H326C326 142.163 333.163 135 342 135H416Z" fill="#270082"/>
<path d="M336 431C344.837 431 352 438.163 352 447H133C133 438.163 140.163 431 149 431H336Z" fill="#270082"/>
<path d="M146.032 480C137.348 480 130.467 472.667 131.018 464H354C355.559 472.314 349.18 480 340.721 480H146.032Z" fill="#270082"/>
<path d="M513 303C513 294.163 505.837 287 497 287V480C505.837 480 513 472.837 513 464V303Z" fill="#270082"/>
<path d="M432 150H424H416V296C424.837 296 432 288.837 432 280V150Z" fill="#270082"/>
<path d="M339 18C339 9.16344 331.837 2 323 2V283C331.837 283 339 275.837 339 267V18Z" fill="#270082"/>
<path d="M128 245C135.18 245 141 239.18 141 232V229H41V232C41 239.18 46.8203 245 54 245H128Z" fill="#9043C1"/>
<path d="M287 168C294.18 168 300 162.18 300 155V152L163 152V155C163 162.18 168.82 168 176 168L287 168Z" fill="#9043C1"/>
<path d="M322 284C330.837 284 338 276.837 338 268L0 268C0 276.837 7.16345 284 16 284L322 284Z" fill="#7A0BC0"/>
<path d="M322 284C330.837 284 338 276.837 338 268L0 268C0 276.837 7.16345 284 16 284L322 284Z" fill="#270082"/>
<rect x="68" y="348" width="325" height="16" fill="#270082"/>
<path d="M133.069 445.724C133.315 444.741 134.257 444.097 135.263 444.225L157 447C154.439 447 151.982 448.017 150.171 449.828L149.343 450.657C147.843 452.157 147 454.192 147 456.314V469H134.272C132.513 469 131.131 467.493 131.283 465.74L133 446L133.069 445.724Z" fill="#270082"/>
<path d="M351.931 445.724C351.685 444.741 350.743 444.097 349.737 444.225L328 447C330.561 447 333.017 448.017 334.829 449.828L335.657 450.657C337.157 452.157 338 454.192 338 456.314V469H350.728C352.487 469 353.869 467.493 353.717 465.74L352 446L351.931 445.724Z" fill="#270082"/>
<path d="M179 402H196L187 431H171L179 402Z" fill="#270082"/>
<path d="M307 402H290L299 431H315L307 402Z" fill="#270082"/>
</svg>
