<svg width="513" height="480" viewBox="0 0 513 480" fill="none" xmlns="http://www.w3.org/2000/svg">
<circle cx="445" cy="447" r="8" fill="#7A0BC0"/>
<rect x="64" y="386" width="212" height="16" rx="8" fill="#7A0BC0"/>
<path d="M252 394C252 389.582 255.582 386 260 386H378V402H260C255.582 402 252 398.418 252 394V394Z" fill="#7A0BC0"/>
<path d="M322 0C330.837 0 338 7.16344 338 16V16L0 16V16C0 7.16344 7.16344 0 16 0L322 0Z" fill="#7A0BC0"/>
<path d="M316 13C328.15 13 338 22.8497 338 35V47L0 47V38C0 24.1929 11.1929 13 25 13L316 13Z" fill="#7A0BC0"/>
<path d="M0 16C0 7.16344 7.16344 0 16 0V0L16 281V281C7.16344 281 0 273.837 0 265L0 16Z" fill="#7A0BC0"/>
<path d="M54 288C54 279.163 61.1634 272 70 272V272L70 402V402C61.1634 402 54 394.837 54 386L54 288Z" fill="#7A0BC0"/>
<path d="M393 480C384.163 480 377 472.837 377 464V464H511V464C511 472.837 503.837 480 495 480H393Z" fill="#7A0BC0"/>
<path d="M416 135C424.837 135 432 142.163 432 151V151H326V151C326 142.163 333.163 135 342 135H416Z" fill="#7A0BC0"/>
<path d="M513 303C513 294.163 505.837 287 497 287V287V480V480C505.837 480 513 472.837 513 464V303Z" fill="#7A0BC0"/>
<path d="M432 150H424H416V301V301C424.837 301 432 293.837 432 285V150Z" fill="#7A0BC0"/>
<rect x="241" y="231" width="175" height="97" fill="#F1A168" fill-opacity="0.83"/>
<rect x="70" y="272" width="346" height="56" fill="#F1A168" fill-opacity="0.83"/>
<rect x="339" y="151" width="77" height="93" fill="#F1A168" fill-opacity="0.83"/>
<path d="M339 18C339 9.16344 331.837 2 323 2V2V283V283C331.837 283 339 275.837 339 267V18Z" fill="#7A0BC0"/>
<path d="M322 284C330.837 284 338 276.837 338 268V268L0 268V268C0 276.837 7.16344 284 16 284L322 284Z" fill="#7A0BC0"/>
<path d="M322 284C330.837 284 338 276.837 338 268V268L0 268V268C0 276.837 7.16344 284 16 284L322 284Z" fill="#7A0BC0"/>
<rect x="68" y="348" width="325" height="16" fill="#7A0BC0"/>
<path d="M377 303C377 294.163 384.163 287 393 287V287V480V480C384.163 480 377 472.837 377 464V303Z" fill="#7A0BC0"/>
<path d="M322 16V268L16 268V16L322 16Z" fill="#EB862E" fill-opacity="0.5"/>
<rect x="57.4021" y="100" width="135.924" height="84" fill="#F1A168" fill-opacity="0.83"/>
<rect x="16" y="47" width="307" height="184" fill="#F0A564" fill-opacity="0.7"/>
<rect x="393" y="328" width="15" height="102" fill="#F0A564" fill-opacity="0.7"/>
<rect x="393" y="300" width="104" height="84" fill="#F1A168" fill-opacity="0.83"/>
<rect x="57.4021" y="138.541" width="265.598" height="92.8941" fill="#F58C8E"/>
<rect x="230.041" y="67.3882" width="78.1171" height="98.8235" fill="#F36F72" fill-opacity="0.7"/>
<rect x="408" y="328" width="89" height="102" fill="#F36F72" fill-opacity="0.7"/>
<rect x="70" y="328" width="307" height="20" fill="#F58C8E" fill-opacity="0.6"/>
<rect x="339" y="171" width="39" height="73" fill="#F36F72" fill-opacity="0.7"/>
<path d="M495 285C503.837 285 511 292.163 511 301V301H377V301C377 292.163 384.163 285 393 285H495Z" fill="#7A0BC0"/>
<path d="M145.869 480C141.058 480 137.241 475.949 137.526 471.147V471.147C137.765 467.133 141.089 464 145.11 464H340.336C343.726 464 346.625 466.435 347.209 469.774V469.774C348.144 475.111 344.037 480 338.618 480H145.869Z" fill="#7A0BC0"/>
<path d="M199 402H216L196 464H179L199 402Z" fill="#7A0BC0"/>
<path d="M288 464H305L285 402H268L288 464Z" fill="#7A0BC0"/>
</svg>
