<svg width="166" height="200" viewBox="0 0 166 200" fill="none" xmlns="http://www.w3.org/2000/svg">
<path d="M81.9663 48.1599C82.3569 48.3552 82.6694 48.8239 83.1381 48.8239C83.5678 48.8239 84.2318 48.6677 84.2708 48.238C84.349 47.6912 83.5287 47.3397 83.0209 47.1053C82.3569 46.8319 81.4976 46.7147 80.8727 47.0663C80.7164 47.1444 80.5602 47.3397 80.6383 47.4959C80.7555 48.0037 81.5367 47.9256 81.9663 48.1599V48.1599ZM73.4124 48.8239C73.8811 48.8239 74.1935 48.3552 74.5841 48.1599C75.0138 47.9256 75.795 48.0037 75.9512 47.535C76.0293 47.3787 75.8731 47.1834 75.7169 47.1053C75.0919 46.7538 74.2326 46.871 73.5686 47.1444C73.0608 47.3787 72.2406 47.7303 72.3187 48.2771C72.3578 48.6677 73.0218 48.863 73.4124 48.8239V48.8239ZM159.772 157.721C158.366 156.159 157.702 153.19 156.96 150.026C156.257 146.863 155.437 143.464 152.859 141.277C152.351 140.848 151.843 140.457 151.297 140.144C150.789 139.832 150.242 139.559 149.695 139.363C153.289 128.7 151.882 118.076 148.25 108.467C143.797 96.7106 136.024 86.438 130.087 79.4073C123.408 71.0096 116.924 63.0415 117.042 51.2847C117.237 33.3565 119.034 0.0389281 87.4346 -0.000131191C47.438 -0.0782497 57.4371 40.3871 57.0075 52.808C56.3435 61.9478 54.5077 69.1347 48.2191 78.0793C40.8369 86.8676 30.4472 101.046 25.5257 115.85C23.1822 122.841 22.0885 129.95 23.104 136.668C20.5652 138.934 18.6513 142.41 16.6202 144.558C14.9797 146.238 12.5971 146.863 9.98014 147.8C7.36317 148.737 4.51185 150.144 2.75418 153.464C1.93394 154.987 1.66052 156.627 1.66052 158.307C1.66052 159.83 1.89488 161.393 2.12923 162.916C2.59794 166.08 3.10571 169.048 2.44171 171.04C0.410625 176.665 0.13721 180.571 1.5824 183.422C3.06665 186.273 6.03516 187.523 9.43331 188.226C16.1906 189.633 25.3695 189.281 32.5954 193.109C40.3292 197.171 48.1801 198.616 54.4296 197.171C58.9604 196.155 62.6711 193.421 64.5459 189.281C69.4283 189.242 74.8185 187.172 83.4115 186.703C89.2314 186.234 96.5354 188.773 104.933 188.305C105.168 189.203 105.48 190.101 105.91 190.921V190.961C109.152 197.483 115.206 200.452 121.651 199.944C128.134 199.436 134.97 195.648 140.516 189.047C145.828 182.641 154.577 179.985 160.397 176.47C163.288 174.712 165.631 172.525 165.827 169.322C165.983 166.119 164.108 162.564 159.772 157.721ZM83.0991 34.0986C86.9269 25.4274 96.4573 25.5837 100.285 33.9424C102.824 39.4888 101.691 46.0117 98.6056 49.7223C97.9806 49.4098 96.3011 48.7068 93.6841 47.8084C94.1138 47.3397 94.895 46.7538 95.2074 46.0117C97.0823 41.4027 95.1293 35.4657 91.653 35.3485C88.8017 35.1532 86.2238 39.5669 87.044 44.3321C85.4426 43.5509 83.3725 42.965 81.9663 42.6135C81.5757 39.9184 81.8492 36.9109 83.0991 34.0986V34.0986ZM67.2019 29.6068C71.1469 29.6068 75.3263 35.1532 74.6623 42.6916C73.2952 43.0822 71.8891 43.6681 70.6782 44.4884C71.1469 41.0121 69.3893 36.6374 66.9285 36.8327C63.6476 37.1062 63.1007 45.1133 66.2255 47.8084C66.6161 48.1209 66.9676 47.7303 63.921 49.9566C57.8277 44.254 59.8197 29.6068 67.2019 29.6068V29.6068ZM61.8899 53.3157C64.3116 51.519 67.2019 49.4098 67.3972 49.2145C69.233 47.4959 72.6702 43.6681 78.2948 43.6681C81.068 43.6681 84.388 44.5665 88.4111 47.1444C90.8719 48.7458 92.8248 48.863 97.2385 50.7769C100.519 52.144 102.59 54.5656 101.34 57.8857C100.324 60.6589 97.0432 63.5102 92.4733 64.9554C88.1377 66.3615 84.7395 71.2049 77.5526 70.7752C76.0293 70.6971 74.8185 70.3846 73.803 69.955C70.6782 68.5879 69.0377 65.8928 65.9911 64.0961C62.632 62.2213 60.8353 60.0339 60.2494 58.12C59.7026 56.2061 60.2494 54.6047 61.8899 53.3157V53.3157ZM63.1788 183.774C62.1242 197.483 46.0318 197.21 33.7672 190.804C22.0885 184.633 6.97258 188.265 3.8869 182.25C2.94948 180.415 2.94948 177.29 4.90244 171.939V171.861C5.83986 168.892 5.13679 165.611 4.66808 162.525C4.19937 159.479 3.96502 156.667 5.01962 154.714C6.38669 152.097 8.33965 151.159 10.8004 150.3C14.8235 148.855 15.4094 148.972 18.456 146.433C20.6043 144.207 22.1666 141.394 24.0415 139.402C26.0335 137.254 27.9474 136.239 30.955 136.707C34.1188 137.176 36.8529 139.363 39.5089 142.957L47.1645 156.862C50.8752 164.635 63.9991 175.766 63.1788 183.774V183.774ZM62.632 173.657C61.0306 171.079 58.8823 168.345 57.0075 166.002C59.7807 166.002 62.5539 165.142 63.5304 162.525C64.4287 160.104 63.5304 156.706 60.64 152.8C55.367 145.691 45.6803 140.105 45.6803 140.105C40.4073 136.824 37.4388 132.801 36.0717 128.427C34.7046 124.052 34.8999 119.326 35.9545 114.678C37.9856 105.733 43.2196 97.023 46.5787 91.5547C47.477 90.8907 46.8911 92.8046 43.1805 99.6791C39.8605 105.968 33.65 120.498 42.165 131.864C42.3993 123.779 44.3132 115.537 47.5551 107.842C52.2422 97.1402 62.1242 78.5871 62.9054 63.8227C63.3351 64.1352 64.7022 65.0726 65.3271 65.4241C67.1238 66.4787 68.4909 68.0411 70.2486 69.4472C75.0919 73.3531 81.3805 73.0407 86.8097 69.9159C89.2314 68.5489 91.1843 66.9865 93.0201 66.4006C96.887 65.1898 99.9727 63.0415 101.73 60.5417C104.738 72.4157 111.769 89.5627 116.26 97.9214C118.643 102.374 123.408 111.787 125.478 123.154C126.767 123.115 128.212 123.31 129.736 123.701C135.126 109.756 125.166 94.7185 120.635 90.5392C118.799 88.7425 118.721 87.9613 119.619 88.0004C124.541 92.375 131.025 101.163 133.368 111.045C134.462 115.576 134.657 120.302 133.525 124.989C139.93 127.645 147.547 131.981 145.516 138.582C144.656 138.543 144.266 138.582 143.875 138.582C145.125 134.637 142.352 131.708 134.97 128.388C127.314 125.029 120.908 125.029 120.01 133.27C115.284 134.911 112.862 139.012 111.651 143.933C110.558 148.308 110.245 153.581 109.933 159.518C109.737 162.525 108.527 166.548 107.277 170.845C94.7387 179.79 77.3183 183.696 62.632 173.657V173.657ZM163.171 169.165C162.819 175.727 147.078 176.938 138.485 187.328C133.329 193.46 127.002 196.858 121.455 197.288C115.909 197.718 111.105 195.413 108.292 189.75C106.456 185.414 107.355 180.727 108.722 175.571C110.167 170.025 112.315 164.322 112.589 159.713C112.901 153.776 113.253 148.581 114.229 144.597C115.245 140.574 116.807 137.879 119.58 136.356C119.698 136.278 119.854 136.239 119.971 136.16C120.283 141.316 122.822 146.55 127.314 147.683C132.236 148.972 139.305 144.753 142.313 141.316C145.828 141.199 148.445 140.965 151.14 143.308C155.007 146.628 153.913 155.143 157.819 159.557C161.96 164.088 163.288 167.173 163.171 169.165ZM63.4132 58.081C64.1944 58.8231 65.249 59.8386 66.5379 60.8542C69.1158 62.8853 72.7093 64.9945 77.2011 64.9945C81.732 64.9945 85.9894 62.69 89.622 60.7761C91.5359 59.7605 93.8794 58.0419 95.4027 56.7139C96.926 55.3859 97.7072 54.2532 96.6136 54.136C95.5199 54.0188 95.598 55.1515 94.27 56.128C92.5514 57.3779 90.4813 59.0184 88.8408 59.9558C85.9504 61.5963 81.2242 63.9399 77.1621 63.9399C73.0999 63.9399 69.858 62.065 67.4363 60.1511C66.2255 59.1746 65.2099 58.1982 64.4287 57.456C63.8428 56.9092 63.6866 55.6593 62.7492 55.5421C62.2024 55.5031 62.0461 56.9873 63.4132 58.081V58.081Z" fill="#1A1A40"/>
</svg>
