<svg width="1366" height="1470" viewBox="0 0 1366 1470" fill="none" xmlns="http://www.w3.org/2000/svg">
<rect width="257.219" height="168.298" transform="matrix(1 0 0 -1 973.055 259.731)" fill="#FA58B6"/>
<path d="M742.24 429.034C749.42 429.034 755.24 423.214 755.24 416.034L755.24 -0.000251293H9.63211e-05L9.63211e-05 429.034H742.24Z" fill="#EB862E" fill-opacity="0.5"/>
<rect width="965.394" height="233.608" transform="matrix(1 0 0 -1 264.881 376.787)" fill="#F0A564" fill-opacity="0.7"/>
<rect width="447.671" height="233.608" transform="matrix(1 0 0 -1 564.788 253.703)" fill="#F1A168" fill-opacity="0.83"/>
<rect width="257.219" height="168.298" transform="matrix(1 0 0 -1 136.818 323.032)" fill="#F36F72" fill-opacity="0.8"/>
<rect width="257.219" height="168.298" transform="matrix(1 0 0 -1 973.055 1299.73)" fill="#FA58B6"/>
<path d="M742.24 1469.03C749.42 1469.03 755.24 1463.21 755.24 1456.03L755.24 1040H9.63211e-05L9.63211e-05 1469.03H742.24Z" fill="#EB862E" fill-opacity="0.5"/>
<rect width="965.394" height="233.608" transform="matrix(1 0 0 -1 264.881 1416.79)" fill="#F0A564" fill-opacity="0.7"/>
<rect width="447.671" height="233.608" transform="matrix(1 0 0 -1 564.788 1293.7)" fill="#F1A168" fill-opacity="0.83"/>
<rect width="257.219" height="168.298" transform="matrix(1 0 0 -1 136.818 1363.03)" fill="#F36F72" fill-opacity="0.8"/>
<rect x="690.661" y="779.697" width="178.412" height="168.298" transform="rotate(-180 690.661 779.697)" fill="#FA58B6"/>
<path d="M854.709 949C847.529 949 841.709 943.18 841.709 936L841.709 519.966H1366L1366 949H854.709Z" fill="#EB862E" fill-opacity="0.5"/>
<rect x="1182.12" y="896.753" width="669.865" height="233.608" transform="rotate(-180 1182.12 896.753)" fill="#F0A564" fill-opacity="0.7"/>
<rect x="634.84" y="753.573" width="310.852" height="233.608" transform="rotate(-180 634.84 753.573)" fill="#F1A168" fill-opacity="0.83"/>
<rect x="1270.77" y="842.998" width="178.412" height="168.298" transform="rotate(-180 1270.77 842.998)" fill="#F36F72" fill-opacity="0.8"/>
</svg>
