<svg width="75" height="100" viewBox="0 0 75 100" fill="none" xmlns="http://www.w3.org/2000/svg">
<path d="M56.25 48.4375V53.9062C56.25 55.1953 55.1953 56.25 53.9062 56.25H21.0938C19.8047 56.25 18.75 55.1953 18.75 53.9062V48.4375C18.75 47.1484 19.8047 46.0938 21.0938 46.0938H53.9062C55.1953 46.0938 56.25 47.1484 56.25 48.4375ZM53.9062 62.5H21.0938C19.8047 62.5 18.75 63.5547 18.75 64.8438V70.3125C18.75 71.6016 19.8047 72.6562 21.0938 72.6562H53.9062C55.1953 72.6562 56.25 71.6016 56.25 70.3125V64.8438C56.25 63.5547 55.1953 62.5 53.9062 62.5ZM75 25.7617V90.625C75 95.8008 70.8008 100 65.625 100H9.375C4.19922 100 0 95.8008 0 90.625V9.375C0 4.19922 4.19922 0 9.375 0H49.2383C51.7188 0 54.1016 0.996094 55.8594 2.75391L72.2461 19.1406C74.0039 20.8789 75 23.2812 75 25.7617ZM50 10.1367V25H64.8633L50 10.1367V10.1367ZM65.625 90.625V34.375H45.3125C42.7148 34.375 40.625 32.2852 40.625 29.6875V9.375H9.375V90.625H65.625Z" fill="white"/>
</svg>
