<svg width="286" height="200" viewBox="0 0 286 200" fill="none" xmlns="http://www.w3.org/2000/svg">
<path d="M64.2857 200C28.7813 200 0 171.205 0 135.714C0 107.679 17.933 83.8393 42.9464 75.0446C42.8884 73.8393 42.8571 72.6339 42.8571 71.4286C42.8571 31.9643 74.8214 0 114.286 0C140.759 0 163.839 14.3973 176.205 35.8036C182.991 30.8482 191.205 28.5714 200 28.5714C223.661 28.5714 242.857 47.3661 242.857 71.4286C242.857 76.875 241.83 82.0536 240 86.875C266.071 92.1429 285.714 115.223 285.714 142.857C285.714 174.42 260.134 200 228.571 200H64.2857ZM99.5536 103.125C95.4018 107.321 95.4018 114.107 99.5536 117.902C103.75 122.455 110.536 122.455 114.33 117.902L132.143 100.848V160.714C132.143 166.652 136.92 171.429 142.857 171.429C148.795 171.429 153.571 166.652 153.571 160.714V100.848L170.982 117.902C175.179 122.455 181.964 122.455 185.759 117.902C190.313 114.107 190.313 107.321 185.759 103.125L150.045 67.4107C146.25 63.2589 139.464 63.2589 135.268 67.4107L99.5536 103.125Z" fill="white"/>
</svg>
